<svg width="48" height="48" viewBox="0 0 48 48" fill="none" xmlns="http://www.w3.org/2000/svg">
<path d="M14.1 42.1C13.7333 42.4 13.342 42.4167 12.926 42.15C12.5086 41.8833 12.3833 41.5167 12.55 41.05L16.3 28.8L6.54997 21.8C6.14997 21.5333 6.0253 21.1667 6.17597 20.7C6.3253 20.2333 6.6333 20 7.09997 20H19.2L23.05 7.2C23.1166 6.93333 23.242 6.75 23.426 6.65C23.6086 6.55 23.8 6.5 24 6.5C24.2 6.5 24.392 6.55 24.576 6.65C24.7586 6.75 24.8833 6.93333 24.95 7.2L28.8 20H40.9C41.3666 20 41.6753 20.2333 41.826 20.7C41.9753 21.1667 41.85 21.5333 41.45 21.8L31.7 28.8L35.45 41.05C35.6166 41.5167 35.492 41.8833 35.076 42.15C34.6586 42.4167 34.2666 42.4 33.9 42.1L24 34.6L14.1 42.1Z" fill="#FFFBEB"/>
</svg>
