<svg width="48" height="48" viewBox="0 0 48 48" fill="none" xmlns="http://www.w3.org/2000/svg">
<path d="M40 24C39.4667 24 38.992 23.808 38.576 23.424C38.1587 23.0413 37.9167 22.5667 37.85 22C37.4167 18.9 36.1087 16.258 33.926 14.074C31.742 11.8913 29.1 10.5833 26 10.15C25.4333 10.0833 24.9587 9.85 24.576 9.45C24.192 9.05 24 8.56667 24 8C24 7.43333 24.2 6.958 24.6 6.574C25 6.19133 25.4667 6.03333 26 6.1C30.2 6.56667 33.7833 8.28333 36.75 11.25C39.7167 14.2167 41.4333 17.8 41.9 22C41.9667 22.5333 41.808 23 41.424 23.4C41.0413 23.8 40.5667 24 40 24ZM31.65 24C31.2167 24 30.8333 23.85 30.5 23.55C30.1667 23.25 29.9167 22.85 29.75 22.35C29.4833 21.3833 28.9753 20.5247 28.226 19.774C27.4753 19.0247 26.6167 18.5167 25.65 18.25C25.15 18.0833 24.75 17.8333 24.45 17.5C24.15 17.1667 24 16.7667 24 16.3C24 15.6333 24.2333 15.0913 24.7 14.674C25.1667 14.258 25.6833 14.1167 26.25 14.25C28.1167 14.6833 29.7253 15.5747 31.076 16.924C32.4253 18.2747 33.3167 19.8833 33.75 21.75C33.8833 22.3167 33.7333 22.8333 33.3 23.3C32.8667 23.7667 32.3167 24 31.65 24ZM39.9 42C35.6 42 31.4087 41.0413 27.326 39.124C23.242 37.208 19.6253 34.6747 16.476 31.524C13.3253 28.3747 10.792 24.758 8.876 20.674C6.95867 16.5913 6 12.4 6 8.1C6 7.5 6.2 7 6.6 6.6C7 6.2 7.5 6 8.1 6H16.2C16.6667 6 17.0833 6.15 17.45 6.45C17.8167 6.75 18.0333 7.13333 18.1 7.6L19.4 14.6C19.4667 15.0667 19.4587 15.4913 19.376 15.874C19.292 16.258 19.1 16.6 18.8 16.9L14 21.8C15.4 24.2 17.15 26.45 19.25 28.55C21.35 30.65 23.6667 32.4667 26.2 34L30.9 29.3C31.2 29 31.592 28.7747 32.076 28.624C32.5587 28.4747 33.0333 28.4333 33.5 28.5L40.4 29.9C40.8667 30 41.25 30.2247 41.55 30.574C41.85 30.9247 42 31.3333 42 31.8V39.9C42 40.5 41.8 41 41.4 41.4C41 41.8 40.5 42 39.9 42Z" fill="#FFFBEB"/>
</svg>
