<svg width="48" height="48" viewBox="0 0 48 48" fill="none" xmlns="http://www.w3.org/2000/svg">
<path d="M30 16.5V12.75C30 11.7554 29.6049 10.8016 28.9017 10.0983C28.1984 9.39509 27.2446 9 26.25 9H8.25C7.25544 9 6.30161 9.39509 5.59835 10.0983C4.89509 10.8016 4.5 11.7554 4.5 12.75V35.25C4.5 36.2446 4.89509 37.1984 5.59835 37.9017C6.30161 38.6049 7.25544 39 8.25 39H26.25C27.2446 39 28.1984 38.6049 28.9017 37.9017C29.6049 37.1984 30 36.2446 30 35.25V31.5M36 16.5L43.5 24M43.5 24L36 31.5M43.5 24H17.9062" stroke="#F8F8F8" stroke-width="3" stroke-linecap="round" stroke-linejoin="round"/>
</svg>
